<?xml version="1.0" encoding="iso-8859-1"?>
<!-- Generator: Adobe Illustrator 18.0.0, SVG Export Plug-In . SVG Version: 6.00 Build 0)  -->
<!DOCTYPE svg PUBLIC "-//W3C//DTD SVG 1.1//EN" "http://www.w3.org/Graphics/SVG/1.1/DTD/svg11.dtd">
<svg version="1.1" id="Capa_1" xmlns="http://www.w3.org/2000/svg" xmlns:xlink="http://www.w3.org/1999/xlink" x="0px" y="0px"
	 viewBox="0 0 429.247 429.247" style="enable-background:new 0 0 429.247 429.247;" xml:space="preserve">
<path d="M304.629,64.023c2.266-2.116,3.389-4.429,3.389-6.951c0-7.379-9.606-12.968-29.367-17.085
	c-16.195-3.374-37.382-5.314-60.027-5.519V4c0-2.209-1.791-4-4-4s-4,1.791-4,4v30.469c-22.646,0.205-43.833,2.144-60.028,5.519
	c-19.761,4.117-29.367,9.706-29.367,17.085c0,2.522,1.123,4.834,3.389,6.95c-2.253,2.113-3.39,4.44-3.39,6.96
	c0,7.381,9.606,12.97,29.368,17.086c16.192,3.373,37.379,5.313,60.027,5.518v87.477c-5.537,1.016-9.749,5.868-9.749,11.695v18.699
	c0,5.826,4.212,10.678,9.749,11.695v70.142l-71.3,130.029c-1.062,1.937-0.353,4.368,1.584,5.431
	c1.937,1.061,4.368,0.354,5.431-1.585l64.285-117.236v91.315c0,2.209,1.791,4,4,4s4-1.791,4-4v-91.315l64.286,117.237
	c0.728,1.327,2.097,2.078,3.511,2.078c0.65,0,1.31-0.159,1.92-0.493c1.937-1.063,2.646-3.494,1.584-5.431l-71.3-130.03v-70.142
	c5.538-1.016,9.75-5.868,9.75-11.695v-5.35h3.76c2.209,0,4-1.791,4-4s-1.791-4-4-4h-3.76v-5.35c0-5.827-4.213-10.679-9.75-11.695
	V93.586c22.648-0.205,43.835-2.144,60.028-5.518c19.761-4.116,29.367-9.705,29.367-17.086
	C308.018,68.463,306.882,66.136,304.629,64.023z M152.817,47.697c15.607-3.19,36.005-5.028,57.807-5.229v2.451
	c-3.903,0.491-7.698,1.696-11.148,3.557c-1.944,1.048-2.671,3.475-1.622,5.419c1.048,1.945,3.476,2.673,5.419,1.622
	c3.458-1.865,7.384-2.851,11.352-2.851c3.967,0,7.893,0.985,11.352,2.851c0.604,0.326,1.254,0.48,1.895,0.48
	c1.423,0,2.801-0.762,3.524-2.103c1.048-1.944,0.322-4.371-1.623-5.419c-3.451-1.861-7.246-3.065-11.148-3.557v-2.452
	c21.802,0.201,42.2,2.039,57.807,5.229c19.213,3.929,23.493,8.396,23.587,9.372c-0.094,0.981-4.371,5.448-23.583,9.377
	c-16.558,3.386-38.51,5.25-61.812,5.25s-45.254-1.864-61.812-5.25c-19.212-3.929-23.489-8.396-23.583-9.371
	C129.323,56.094,133.604,51.626,152.817,47.697z M220.374,192.758v18.699c0,2.15-1.75,3.899-3.899,3.899h-3.7
	c-2.15,0-3.899-1.749-3.899-3.899v-18.699c0-2.15,1.75-3.899,3.899-3.899h3.7C218.624,188.858,220.374,190.607,220.374,192.758z
	 M276.451,80.354c-16.558,3.387-38.514,5.252-61.824,5.252c-23.313,0-45.272-1.865-61.831-5.252
	c-19.209-3.929-23.477-8.394-23.568-9.369c0.022-0.216,0.559-1.151,2.606-2.448c4.678,2.118,10.917,3.985,18.763,5.62
	c17.145,3.572,39.883,5.539,64.028,5.539c24.144,0,46.883-1.967,64.027-5.539c7.845-1.634,14.083-3.501,18.762-5.619
	c2.046,1.296,2.583,2.231,2.605,2.443C299.927,71.961,295.659,76.426,276.451,80.354z"/>
<g>
</g>
<g>
</g>
<g>
</g>
<g>
</g>
<g>
</g>
<g>
</g>
<g>
</g>
<g>
</g>
<g>
</g>
<g>
</g>
<g>
</g>
<g>
</g>
<g>
</g>
<g>
</g>
<g>
</g>
</svg>
