<svg height="512pt" viewBox="0 -35 512 512" width="512pt" xmlns="http://www.w3.org/2000/svg"><path d="m466.765625 208.617188c0-35.742188-95.199219-64.71875-212.636719-64.71875s-212.636718 28.976562-212.636718 64.71875c0 35.746093 95.199218 64.722656 212.636718 64.722656s212.636719-28.976563 212.636719-64.722656zm0 0" fill="#f6f6f6"/><path d="m254.183594 273.339844c-117.433594 0-212.636719-28.976563-212.636719-64.71875v103.140625c136.890625 52.539062 288.382813 52.539062 425.273437 0v-103.140625c0 35.742187-95.199218 64.71875-212.636718 64.71875zm0 0" fill="#ffcb7c"/><g fill="#8690a6"><path d="m137.269531 339.53125v80.914062c17.792969 3.570313 37.445313 6.355469 58.429688 8.175782v-80.351563c-19.574219-1.9375-39.074219-4.851562-58.429688-8.738281zm0 0"/><path d="m41.527344 311.761719v54.617187c0 13.59375 13.785156 26.207032 37.3125 36.625v-78.335937c-12.539063-3.878907-24.984375-8.175781-37.3125-12.90625zm0 0"/><path d="m195.699219 348.269531v80.351563c18.566406 1.613281 38.164062 2.476562 58.429687 2.476562v-79.933594c-19.5 0-39-.96875-58.429687-2.894531zm0 0"/><path d="m78.839844 324.667969v78.335937c15.585937 6.898438 35.449218 12.828125 58.429687 17.441406v-80.914062c-19.65625-3.949219-39.15625-8.902344-58.429687-14.863281zm0 0"/><path d="m254.128906 351.164062v79.9375h.039063c20.25 0 39.835937-.863281 58.390625-2.472656v-80.351562c-19.429688 1.921875-38.929688 2.890625-58.429688 2.886718zm0 0"/><path d="m466.804688 311.761719c-12.351563 4.742187-24.820313 9.046875-37.386719 12.929687v78.34375c23.574219-10.421875 37.386719-23.046875 37.386719-36.65625zm0 0"/><path d="m312.558594 348.277344v80.351562c20.984375-1.820312 40.636718-4.601562 58.429687-8.167968v-80.917969c-19.355469 3.890625-38.855469 6.800781-58.429687 8.734375zm0 0"/><path d="m370.988281 339.546875v80.914063c22.976563-4.609376 42.839844-10.535157 58.429688-17.425782v-78.34375c-19.273438 5.957032-38.773438 10.90625-58.429688 14.855469zm0 0"/></g><path d="m160.820312 198.082031-144.507812-144.503906c-7.394531-7.398437-7.394531-19.390625 0-26.785156 7.398438-7.394531 19.390625-7.394531 26.785156 0l144.503906 144.503906" fill="#e6b9a0"/><path d="m215.425781 180.335938c-12.585937-12.585938-32.988281-12.585938-45.574219 0-12.582031 12.582031-12.582031 32.984374 0 45.570312 12.585938 12.582031 32.988282 12.582031 45.574219 0 12.582031-12.585938 12.582031-32.988281 0-45.570312zm0 0" fill="#8690a6"/><path d="m352.515625 198.164062 144.503906-144.503906c7.398438-7.398437 7.398438-19.390625 0-26.785156-7.394531-7.394531-19.386719-7.394531-26.78125 0l-144.507812 144.503906" fill="#e6b9a0"/><path d="m343.476562 180.417969c-12.585937-12.585938-32.988281-12.585938-45.574218 0-12.582032 12.582031-12.582032 32.988281 0 45.570312 12.585937 12.585938 32.988281 12.585938 45.574218 0 12.582032-12.582031 12.582032-32.988281 0-45.570312zm0 0" fill="#8690a6"/><path d="m503.503906 19.722656c-11.328125-11.324218-29.757812-11.328125-41.085937 0l-119.917969 119.917969c-28.015625-3.871094-57.902344-5.855469-89-5.855469-29.34375 0-57.757812 1.773438-84.527344 5.246094l-119.390625-119.390625c-11.328125-11.328125-29.757812-11.328125-41.085937 0s-11.328125 29.761719 0 41.089844l92.273437 92.269531c-45.878906 13.789062-70.019531 32.890625-70.019531 55.617188 0 .179687.015625.355468.019531.53125v102.316406c-.003906.101562-.019531.199218-.019531.296875v54.621093c0 22.097657 19.683594 35.976563 37.707031 44.472657 46.308594 21.828125 102.113281 28.300781 152.707031 30.5 54.066407 2.355469 110.167969-1.070313 162.859376-13.871094 29.324218-7.136719 92.226562-20.800781 92.226562-61.105469v-54.136718c.007812-.160157.019531-.320313.019531-.476563v-103.144531c0-.355469-.019531-.707032-.054687-1.050782-.71875-21.507812-23.476563-39.855468-66.105469-53.363281l93.394531-93.398437c11.328125-11.328125 11.328125-29.757813 0-41.085938s11.328125 11.328125 0 0zm-327.074218 167.851563c8.304687-8.304688 22.804687-8.464844 31.179687-.089844 8.441406 8.445313 8.542969 22.726563 0 31.269531-8.621094 8.621094-22.648437 8.621094-31.269531 0-8.566406-8.566406-8.4375-22.652344.089844-31.179687zm-153.632813-153.628907c3.441406-3.441406 9.042969-3.441406 12.484375 0l133.652344 133.652344c-4.972656 3.238282-9.246094 7.507813-12.476563 12.488282l-133.660156-133.660157c-3.441406-3.441406-3.441406-9.039062 0-12.480469 3.441406-3.441406-3.441406 3.441407 0 0zm230.722656 249.507813c61.335938 0 127.050781-4.070313 183.351563-30.761719 7.410156-3.511718 13.816406-7.242187 19.171875-11.179687v63.230469c-75.925781 28.101562-157.070313 40.035156-237.894531 35.183593-56.703126-3.402343-113.585938-15.363281-167.15625-35.171875v-63.234375c4.335937 3.1875 9.359374 6.238281 15.046874 9.152344 55.742188 28.5 126.058594 32.78125 187.480469 32.78125zm-185.460937 48.625v54.289063c-10.902344-6.742188-17.082032-13.832032-17.082032-19.988282v-40.097656zm20.226562 6.148437c12.65625 3.609376 25.398438 6.792969 38.203125 9.554688v60.128906c-14.441406-3.367187-27.230469-7.257812-38.203125-11.628906zm58.429688 13.558594c12.6875 2.289063 25.429687 4.175782 38.203125 5.640625v60.0625c-13.292969-1.402343-26.082031-3.210937-38.203125-5.410156zm58.429687 7.613282c12.71875 1.023437 25.457031 1.636718 38.203125 1.851562v59.664062c-12.914062-.191406-25.703125-.734374-38.203125-1.632812zm58.429688 1.855468c12.746093-.214844 25.488281-.824218 38.203125-1.847656v59.878906c-12.496094.898438-25.277344 1.441406-38.203125 1.628906zm58.429687-3.816406c12.777344-1.464844 25.515625-3.347656 38.203125-5.632812v60.289062c-12.121093 2.195312-24.910156 4.003906-38.203125 5.40625zm58.429688-9.632812c12.808594-2.757813 25.546875-5.941407 38.203125-9.546876v58.054688c-10.972657 4.363281-23.765625 8.253906-38.203125 11.613281zm58.433594 38.609374v-54.300781c5.738281-1.855469 11.457031-3.792969 17.15625-5.820312v40.085937c0 6.171875-6.210938 13.277344-17.15625 20.035156zm-43.410157-215.484374c19.871094 5.621093 36.007813 12.445312 46.679688 19.734374 6.335937 4.332032 13.886719 10.960938 13.886719 17.953126 0 9.339843-14.476563 23.722656-55.113282 36.09375-39.230468 11.9375-91.578125 18.515624-147.402344 18.515624-55.824218 0-108.171874-6.578124-147.402343-18.515624-40.636719-12.367188-55.113281-26.753907-55.113281-36.089844 0-.058594-.007813-.113282-.007813-.171875.191406-10.15625 17.667969-26.304688 66.183594-39.046875l32.515625 32.515625c-.316406 11.238281 3.796875 22.582031 12.355468 31.140625 8.253907 8.253906 19.09375 12.378906 29.9375 12.378906 10.839844 0 21.683594-4.125 29.9375-12.378906 16.503907-16.507813 16.503907-43.367188 0-59.875-7.996093-7.996094-18.628906-12.402344-29.9375-12.402344-.410156 0-.816406.019531-1.222656.03125l-3.53125-3.53125c21.257813-2.160156 43.464844-3.269531 66.277344-3.269531 24.546875 0 48.296875 1.253906 70.890625 3.738281l-3.164063 3.164062c-11.238281-.316406-22.578124 3.789063-31.136718 12.351563-16.507813 16.503906-16.507813 43.367187 0 59.875 7.996094 7.992187 18.625 12.398437 29.9375 12.398437 11.308594 0 21.9375-4.402343 29.9375-12.398437 8.558594-8.5625 12.667968-19.902344 12.347656-31.140625l31.640625-31.640625c.480469.222656.980469.421875 1.503906.570313 0 0-.523437-.148438 0 0zm-75.429687 10.210937c11.855468.035156 22.109375 10.238281 22.109375 22.0625 0 11.929687-10.226563 22.109375-22.109375 22.109375-11.980469 0-22.113282-10.144531-22.113282-22.109375 0-11.6875 10.453126-22.097656 22.113282-22.0625zm156.691406-147.113281c3.441406-3.445313 9.042969-3.441406 12.484375 0s3.441406 9.039062 0 12.480468l-133.660156 133.65625c-3.230469-4.980468-7.5-9.25-12.480469-12.480468zm0 0"/><path d="m253.460938 40.753906c-5.585938 0-10.113282 4.53125-10.113282 10.113282v39.054687c0 5.585937 4.527344 10.117187 10.113282 10.117187 5.585937 0 10.113281-4.53125 10.113281-10.117187v-39.054687c0-5.582032-4.527344-10.113282-10.113281-10.113282zm0 0"/><path d="m292.148438 102.421875c2.417968.132813 4.949218-.714844 7.179687-2.96875l39.488281-39.824219c9.1875-9.265625-5.175781-23.507812-14.363281-14.242187 0 0-39.328125 39.667969-39.488281 39.824219-6.808594 6.867187-.339844 16.796874 7.183594 17.210937zm0 0"/><path d="m205.632812 99.453125c1.976563 1.992187 4.578126 2.992187 7.179688 2.992187 8.800781.003907 13.347656-11.015624 7.183594-17.234374l-39.488282-39.824219c-3.933593-3.964844-10.335937-3.996094-14.304687-.0625-3.964844 3.933593-3.992187 10.335937-.058594 14.304687zm0 0"/><path d="m253.113281 20.195312c5.40625 0 10.027344-4.535156 10.09375-9.945312.074219-5.609375-4.523437-10.2421875-10.117187-10.25-5.585938-.0078125-10.199219 4.738281-10.082032 10.320312.109376 5.371094 4.742188 9.875 10.105469 9.875zm0 0"/></svg>