<svg height="496pt" viewBox="0 -40 496.017 496" width="496pt" xmlns="http://www.w3.org/2000/svg"><path d="m432.222656 353.011719c79.859375-79.863281 79.859375-209.339844 0-289.203125-79.859375-79.863282-209.34375-79.863282-289.203125 0-79.859375 79.859375-79.863281 209.339844 0 289.203125 79.863281 79.859375 209.339844 79.859375 289.203125 0zm-175.042968-175.046875c16.785156-16.785156 44.097656-16.785156 60.882812 0 16.785156 16.789062 16.785156 44.101562 0 60.886718-16.785156 16.785157-44.097656 16.785157-60.882812 0-16.789063-16.789062-16.789063-44.097656 0-60.886718zm0 0" fill="#4671c6"/><path d="m432.222656 353.011719c79.859375-79.863281 79.859375-209.339844 0-289.203125-79.859375-79.863282-209.34375-79.863282-289.203125 0-79.859375 79.859375-79.863281 209.339844 0 289.203125 79.863281 79.859375 209.339844 79.859375 289.203125 0zm-175.042968-175.046875c16.785156-16.785156 44.097656-16.785156 60.882812 0 16.785156 16.789062 16.785156 44.101562 0 60.886718-16.785156 16.785157-44.097656 16.785157-60.882812 0-16.789063-16.789062-16.789063-44.097656 0-60.886718zm0 0" fill="#4671c6"/><g fill="#a4c9ff"><path d="m308.957031 171.066406.019531-.03125c-10.992187-6.277344-24.175781-7.324218-35.898437-3.140625l.015625.042969c11.722656-4.183594 24.875-3.144531 35.863281 3.128906zm0 0"/><path d="m330.332031 133.660156 58.761719-102.839844c-52.25-29.894531-114.867188-34.871093-170.566406-14.921874l40.011718 111.484374c23.445313-8.371093 49.8125-6.277343 71.792969 6.277344zm0 0"/><path d="m302.511719 248.753906.011719.03125c4.230468-1.554687 8.261718-3.789062 11.925781-6.714844-3.667969 2.910157-7.710938 5.128907-11.9375 6.683594zm0 0"/><path d="m316.359375 240.460938c.578125-.519532 1.148437-1.054688 1.703125-1.609376-.554688.554688-1.125 1.089844-1.703125 1.609376zm0 0"/><path d="m318.0625 238.851562c.554688-.558593 1.089844-1.128906 1.609375-1.707031-.519531.582031-1.054687 1.148438-1.609375 1.707031zm0 0"/><path d="m319.898438 236.882812c.457031-.515624.894531-1.035156 1.320312-1.5625-.421875.53125-.867188 1.046876-1.320312 1.5625zm0 0"/><path d="m314.53125 242.007812c.53125-.425781 1.050781-.867187 1.5625-1.320312-.515625.453125-1.03125.898438-1.5625 1.320312zm0 0"/><path d="m348.503906 269.292969c-9.09375 9.09375-19.738281 15.703125-31.082031 19.867187l41.011719 111.128906c26.917968-9.914062 52.171875-25.664062 73.789062-47.28125 21.617188-21.617187 37.367188-46.871093 47.28125-73.789062l-111.128906-41.011719c-4.167969 11.347657-10.777344 21.992188-19.871094 31.085938zm0 0"/><path d="m327.996094 223.308594-.03125-.011719c-1.554688 4.230469-3.769532 8.269531-6.683594 11.9375 2.925781-3.664063 5.164062-7.695313 6.714844-11.925781zm0 0"/></g><path d="m287.621094 416.804688c-53.394532 0-106.785156-20.320313-147.429688-60.964844-81.292968-81.292969-81.292968-213.566406 0-294.863282 81.289063-81.292968 213.566406-81.289062 294.855469 0 81.292969 81.292969 81.292969 213.566407 0 294.863282-40.644531 40.644531-94.03125 60.964844-147.425781 60.964844zm-141.773438-66.621094c78.175782 78.171875 205.375 78.171875 283.546875 0 78.171875-78.175782 78.171875-205.375 0-283.546875s-205.371093-78.167969-283.546875 0c-78.171875 78.171875-78.171875 205.371093 0 283.546875zm0 0" fill="#3762cc"/><path d="m162.171875 82.957031c69.171875-69.171875 181.722656-69.171875 250.898437 0 69.171876 69.175781 69.171876 181.730469 0 250.902344-69.175781 69.171875-181.726562 69.171875-250.898437 0-69.175781-69.175781-69.175781-181.730469 0-250.902344zm245.425781 245.429688c66.15625-66.15625 66.15625-173.800781 0-239.957031s-173.800781-66.15625-239.957031 0-66.15625 173.796874 0 239.953124c66.15625 66.160157 173.800781 66.160157 239.957031.003907zm0 0" fill="#3762cc"/><path d="m184.054688 104.84375c57.105468-57.105469 150.023437-57.101562 207.128906 0 57.105468 57.105469 57.105468 150.023438 0 207.128906-57.109375 57.105469-150.023438 57.105469-207.128906 0-57.101563-57.105468-57.101563-150.023437 0-207.128906zm201.65625 201.65625c54.089843-54.085938 54.089843-142.097656 0-196.183594-54.085938-54.089844-142.09375-54.089844-196.183594 0-54.085938 54.085938-54.085938 142.097656 0 196.183594 54.089844 54.089844 142.097656 54.089844 196.183594 0zm0 0" fill="#3762cc"/><path d="m205.945312 126.730469c45.035157-45.035157 118.316407-45.035157 163.351563 0 45.039063 45.039062 45.039063 118.316406 0 163.355469-45.035156 45.035156-118.316406 45.035156-163.351563 0-45.039062-45.039063-45.039062-118.316407 0-163.355469zm157.878907 157.882812c42.023437-42.019531 42.023437-110.390625 0-152.410156-42.019531-42.019531-110.386719-42.019531-152.410157 0-42.019531 42.019531-42.019531 110.390625 0 152.410156 42.023438 42.019531 110.390626 42.019531 152.410157 0zm0 0" fill="#3762cc"/><path d="m348.503906 269.292969c33.570313-33.574219 33.570313-88.199219 0-121.769531-33.570312-33.574219-88.199218-33.574219-121.769531 0-33.574219 33.570312-33.574219 88.195312 0 121.769531 33.570313 33.570312 88.199219 33.570312 121.769531 0zm-91.324218-91.328125c16.785156-16.785156 44.097656-16.785156 60.882812 0 16.785156 16.789062 16.785156 44.101562 0 60.886718-16.785156 16.785157-44.097656 16.785157-60.882812 0-16.789063-16.789062-16.789063-44.097656 0-60.886718zm0 0" fill="#f9a7a7"/><path d="m287.621094 298.46875c-23.074219 0-46.148438-8.78125-63.714844-26.347656-35.128906-35.128906-35.128906-92.292969 0-127.425782 35.132812-35.132812 92.292969-35.132812 127.429688 0 35.128906 35.128907 35.128906 92.292969 0 127.425782-17.570313 17.566406-40.640626 26.347656-63.714844 26.347656zm0-172.125c-21.027344 0-42.050782 8.003906-58.058594 24.007812-32.011719 32.011719-32.011719 84.101563 0 116.113282 32.015625 32.011718 84.101562 32.011718 116.117188 0 32.011718-32.011719 32.011718-84.101563 0-116.113282-16.007813-16.003906-37.035157-24.007812-58.058594-24.007812zm0 129.09375c-12.050782 0-24.097656-4.585938-33.273438-13.757812-18.34375-18.34375-18.34375-48.199219 0-66.542969 8.875-8.875 20.691406-13.761719 33.269532-13.761719h.003906c12.578125 0 24.394531 4.886719 33.269531 13.761719s13.761719 20.691406 13.761719 33.273437c0 12.582032-4.886719 24.394532-13.761719 33.269532-9.171875 9.171874-21.21875 13.757812-33.269531 13.757812zm-27.613282-74.644531c-15.226562 15.226562-15.226562 40 0 55.226562 15.226563 15.226563 40.003907 15.230469 55.226563.003907 7.363281-7.363282 11.417969-17.171876 11.417969-27.617188s-4.054688-20.25-11.417969-27.613281-17.171875-11.417969-27.613281-11.417969c-10.445313 0-20.253906 4.058594-27.613282 11.417969zm0 0" fill="#3762cc"/><path d="m349.035156 374.828125c24.164063-8.875 45.703125-22.640625 64.035156-40.96875 18.316407-18.316406 32.105469-39.859375 40.984376-64.035156l-7.265626-2.667969c-8.488281 23.113281-21.675781 43.714844-39.191406 61.230469-17.535156 17.535156-38.132812 30.699219-61.242187 39.179687zm0 0" fill="#e0ebfc"/><path d="m230.3125 48.730469c46.882812-16.753907 98.351562-12.296875 141.5 12.339843l3.835938-6.71875c-45.117188-25.761718-98.933594-30.421874-147.949219-12.902343zm0 0" fill="#e0ebfc"/><path d="m335.652344 338.542969c18.894531-6.941407 35.738281-17.722657 50.058594-32.042969 14.320312-14.320312 25.101562-31.164062 32.042968-50.058594l7.265625 2.667969c-7.332031 19.953125-18.714843 37.742187-33.835937 52.863281s-32.90625 26.503906-52.863282 33.832032zm0 0" fill="#e0ebfc"/><path d="m355.21875 87.253906 1.261719.644532 3.785156-6.621094-1.28125-.78125c-37.015625-20.636719-81.1875-24.207032-121.191406-9.804688l2.621093 7.28125c37.898438-13.648437 79.742188-10.265625 114.804688 9.28125zm0 0" fill="#e0ebfc"/><path d="m248.472656 99.742188c31.9375-11.449219 67.09375-8.402344 96.460938 8.363281l-3.835938 6.722656c-27.398437-15.644531-60.203125-18.488281-90.007812-7.800781zm0 0" fill="#e0ebfc"/><path d="m324.9375 309.507812c14.679688-5.394531 27.761719-13.765624 38.886719-24.894531 11.128906-11.125 19.5-24.210937 24.894531-38.890625l7.261719 2.667969c-5.78125 15.742187-14.757813 29.769531-26.683594 41.695313-11.921875 11.921874-25.949219 20.898437-41.691406 26.683593zm0 0" fill="#e0ebfc"/><path d="m272.925781 207.285156c8.546875-3.703125 14.554688-12.375 14.554688-22.511718 0-8.386719-4.117188-15.769532-10.378907-20.171876-1.414062-.992187-1.566406-3.054687-.324218-4.273437 4.523437-4.449219 7.347656-10.710937 7.347656-17.65625 0-10.34375-6.25-19.183594-15.078125-22.753906-1.644531-.664063-2.273437-2.695313-1.253906-4.175781 5.152343-7.476563 6.328125-18.046876.3125-28.492188-.128907-.222656-.289063-.4375-.46875-.613281-7.714844-7.859375-14.933594-9.972657-21.375-9.347657-1.757813.171876-3.1875-1.332031-2.972657-3.136718.777344-6.65625-1.085937-14.152344-7.835937-21.785156-.167969-.191407-.367187-.367188-.582031-.511719-8.675782-5.839844-17.425782-6.125-24.457032-3.046875-1.621093.710937-3.453124-.277344-3.742187-2.066406-2.734375-16.820313-22.15625-27.8125-40.183594-14.371094-4.007812-7.691406-11.894531-12.925782-20.976562-12.925782-8.984375 0-16.804688 5.125-20.851563 12.6875-17.96875-13.09375-37.21875-2.058593-39.871094 14.722657-.273437 1.730469-2.054687 2.691406-3.621093 1.996093-7.050781-3.128906-15.847657-2.867187-24.570313 3.011719-.203125.136719-.398437.308594-.5625.492188-6.796875 7.679687-8.644531 15.214843-7.828125 21.910156.210938 1.746094-1.175781 3.203125-2.878906 3.03125-6.464844-.660156-13.714844 1.429687-21.480469 9.328125-.171875.175781-.332031.378906-.457031.59375-6.058594 10.5-4.847656 21.128906.363281 28.613281.992188 1.429688.378906 3.402344-1.214844 4.039063-8.882812 3.546875-15.183593 12.414062-15.183593 22.796875 0 6.984375 2.855469 13.277343 7.425781 17.730469 1.207031 1.175781 1.0625 3.183593-.316406 4.136718-6.3125 4.394532-10.46875 11.804688-10.46875 20.230469 0 10.167969 6.046875 18.867187 14.640625 22.550781 1.394531.597656 1.964843 2.371094 1.207031 3.710938-2.039062 3.597656-3.210938 7.773437-3.210938 12.234375 0 13.503906 10.648438 24.453125 23.785157 24.453125h.03125c1.484375-.003906 2.660156 1.207031 2.660156 2.734375v.03125c0 16.507812 15.90625 29.171875 32.820313 22.722656 20.292968 15.070313 45.15625 23.976563 72.046874 23.976563 26.296876 0 50.65625-8.515626 70.695313-22.980469 15.695313 3.882812 29.695313-8.234375 29.695313-23.71875 0-1.527344 1.203124-2.769531 2.691406-2.765625l10.34375.007812c.675781 0 1.335937-.257812 1.832031-.722656 13.082031-12.390625 13.875-26.207031 8.445313-35.886719-.777344-1.382812-.191407-3.203125 1.246093-3.828125zm0 0" fill="#4671c6"/><path d="m147.976562 301.1875c-26.183593 0-51.285156-8.128906-72.726562-23.519531-8.289062 2.496093-16.875 1.238281-23.859375-3.570313-7.363281-5.074218-11.886719-13.382812-12.257813-22.40625-14.746093-.707031-26.5-13.183594-26.5-28.421875 0-4.488281 1.046876-8.921875 3.042969-12.910156-9.574219-4.742187-15.675781-14.621094-15.675781-25.585937 0-8.886719 4.058594-17.21875 10.933594-22.589844-4.898438-5.300782-7.578125-12.167969-7.578125-19.511719 0-11.269531 6.320312-21.257813 16.238281-25.878906-5.816406-9.390625-5.722656-21.074219.332031-31.566407.292969-.511718.652344-.980468 1.066407-1.402343 7.238281-7.359375 15.003906-10.914063 23.097656-10.617188-.566406-8.246093 2.441406-16.140625 8.949218-23.496093.394532-.445313.84375-.835938 1.332032-1.167969 8.527344-5.742188 18.195312-7.164063 26.789062-4 1.992188-9.015625 8.261719-16.625 16.691406-20.113281 8.152344-3.371094 17.292969-2.550782 25.605469 2.171874 5.214844-6.964843 13.335938-11.152343 22.058594-11.152343 8.816406 0 16.988281 4.253906 22.191406 11.335937 8.332031-4.851562 17.511719-5.761718 25.726563-2.4375 8.527344 3.449219 14.882812 11.097656 16.886718 20.191406 8.679688-3.222656 18.132813-1.824218 26.789063 4.003907.5.335937.949219.734375 1.34375 1.183593 6.5 7.34375 9.503906 15.238282 8.941406 23.480469 8.097657-.28125 15.867188 3.261719 23.097657 10.628907.417968.421874.789062.90625 1.089843 1.4375 6.023438 10.457031 6.109375 22.136718.300781 31.519531 9.914063 4.621093 16.242188 14.625 16.242188 25.878906 0 7.339844-2.679688 14.210937-7.574219 19.511719 6.871094 5.371094 10.929688 13.707031 10.929688 22.589844 0 10.957031-6.109375 20.847656-15.675781 25.585937 5.0625 10.15625 5.015624 25.503906-9.816407 39.550781-1.242187 1.175782-2.871093 1.820313-4.582031 1.820313l-9.0625-.007813c-.351562 8.460938-4.277344 16.199219-10.894531 21.375-6.207031 4.863282-14.089844 6.777344-21.886719 5.382813-21.1875 14.863281-45.902344 22.707031-71.585938 22.707031zm-72.042968-31.976562c.84375 0 1.683594.269531 2.382812.789062 20.417969 15.167969 44.507813 23.1875 69.660156 23.1875 24.582032 0 48.21875-7.6875 68.355469-22.222656.953125-.691406 2.160157-.921875 3.300781-.640625 6.070313 1.503906 12.066407.25 16.882813-3.523438 4.992187-3.90625 7.851563-9.851562 7.851563-16.308593 0-1.824219.703124-3.535157 1.988281-4.816407 1.261719-1.257812 2.929687-1.953125 4.699219-1.953125h.011718l9.808594.007813c9.953125-9.640625 12.691406-21.070313 7.320312-30.652344-.933593-1.660156-1.117187-3.652344-.5-5.472656.601563-1.792969 1.929688-3.246094 3.640626-3.988281 7.375-3.195313 12.144531-10.59375 12.144531-18.84375 0-6.761719-3.246094-13.078126-8.679688-16.894532-1.640625-1.148437-2.679687-2.960937-2.84375-4.972656-.167969-2.027344.566407-4.003906 2.015625-5.429688 3.964844-3.898437 6.152344-9.15625 6.152344-14.800781 0-8.476562-4.9375-15.953125-12.578125-19.042969-1.921875-.777343-3.367187-2.363281-3.960937-4.351562-.59375-1.984375-.261719-4.097656.914062-5.804688 4.785156-6.945312 4.859375-15.953124.199219-24.121093-5.96875-6.042969-11.875-8.671875-18.050781-8.082031-2.027344.21875-4.011719-.519532-5.4375-1.972657-1.449219-1.480469-2.140626-3.523437-1.894532-5.605469.746094-6.367187-1.535156-12.617187-6.785156-18.585937-6.773438-4.519531-14.054688-5.457031-20.511719-2.628906-1.917969.839843-4.0625.75-5.882812-.242188-1.832031-.996093-3.074219-2.765625-3.414063-4.84375-1.144531-7.035156-5.855468-13.023437-12.292968-15.625-6.871094-2.773437-14.523438-1.421875-21.550782 3.820313-.941406.703125-2.144531.957031-3.285156.691406-1.144531-.257812-2.113281-1.007812-2.65625-2.050781-3.464844-6.644531-10.140625-10.773438-17.425781-10.773438-7.199219 0-13.835938 4.050781-17.324219 10.574219-.546875 1.023438-1.507812 1.753906-2.636719 2.011719-1.125.261719-2.3125.015625-3.246093-.664063-7-5.101562-14.601563-6.363281-21.398438-3.546875-6.398438 2.644531-11.058594 8.644531-12.167969 15.660157-.324219 2.058593-1.550781 3.808593-3.367187 4.796874-1.808594.984376-3.929688 1.074219-5.824219.234376-6.480469-2.878907-13.792969-1.957032-20.605469 2.59375-5.269531 5.996093-7.546875 12.277343-6.765625 18.675781.25 2.0625-.429687 4.085937-1.867187 5.550781-1.414063 1.441406-3.382813 2.160156-5.386719 1.941406-6.203125-.625-12.144531 2.003906-18.136719 8.0625-4.683594 8.207032-4.597656 17.25.246094 24.207032 1.171875 1.6875 1.503906 3.777343.917969 5.742187-.589844 1.972656-2.023438 3.539063-3.929688 4.300781-7.578125 3.023438-12.667969 10.691406-12.667969 19.078125 0 5.679688 2.207032 10.957031 6.21875 14.867188 1.441407 1.402343 2.167969 3.355469 2.003907 5.367187-.164063 1.992188-1.195313 3.789063-2.828125 4.921875-5.476563 3.8125-8.75 10.148438-8.75 16.945313 0 8.285156 4.792968 15.695312 12.214844 18.875 1.695312.726562 3.011718 2.164062 3.613281 3.941406.609375 1.800781.425781 3.777344-.503907 5.417969-1.761718 3.113281-2.691406 6.664062-2.691406 10.265625 0 11.277344 8.878906 20.453125 19.785156 20.453125h.011719c1.796875 0 3.460938.691406 4.710938 1.941406 1.269531 1.273437 1.972656 2.976563 1.96875 4.800781 0 6.875 3.296875 13.238282 8.824219 17.042969 5.453124 3.757813 12.046874 4.457031 18.574218 1.964844.464844-.183594.949219-.269531 1.429688-.269531zm198.582031-58.257813h.007813c-.003907 0-.007813 0-.007813 0zm-9.726563-121.507813c.003907 0 .003907.003907.007813.003907-.003906 0-.003906-.003907-.007813-.003907zm-.148437-.195312s0 .003906.003906.003906c0 0-.003906-.003906-.003906-.003906zm-205.800781-34.066406h-.003906zm0 0" fill="#3762cc"/><path d="m185.425781 313.914062h-.003906c-.03125 0-.0625-.003906-.09375-.003906l-.003906.003906h-.007813c.113282-.550781.183594-1.113281.183594-1.683593v-17.609375c-11.671875 5.898437-24.890625 9.230468-38.894531 9.230468-14.015625 0-27.242188-3.335937-38.917969-9.246093v17.675781c0 .554688.074219 1.09375.183594 1.632812h-.085938c-31.832031 0-57.640625 25.804688-57.640625 57.636719v25.8125h192.917969v-25.8125c0-31.832031-25.804688-57.636719-57.636719-57.636719zm0 0" fill="#eaa97d"/><path d="m232.910156 186.523438c-.179687 0-.359375.023437-.539062.027343v-8.03125c0-46.941406-38.402344-84.992187-85.769532-84.992187-47.367187 0-85.765624 38.054687-85.765624 84.992187v8.03125c-.183594-.003906-.363282-.027343-.542969-.027343-14.453125 0-26.167969 11.609374-26.167969 25.929687s11.71875 25.929687 26.167969 25.929687c.949219 0 1.882812-.054687 2.808593-.15625 8.847657 37.605469 42.863282 65.621094 83.5 65.621094 40.636719 0 74.652344-28.019531 83.503907-65.621094.921875.101563 1.855469.15625 2.804687.15625 14.453125 0 26.167969-11.609374 26.167969-25.929687s-11.714844-25.929687-26.167969-25.929687zm0 0" fill="#eaa97d"/><path d="m103.980469 225.726562c-5.253907 0-9.527344-3.984374-9.527344-8.882812v-14.8125c0-4.898438 4.273437-8.886719 9.527344-8.886719 5.253906 0 9.527343 3.988281 9.527343 8.886719v14.8125c0 4.898438-4.273437 8.882812-9.527343 8.882812zm0 0" fill="#3762cc"/><path d="m188.816406 225.726562c-5.253906 0-9.527344-3.984374-9.527344-8.882812v-14.8125c0-4.898438 4.273438-8.886719 9.527344-8.886719s9.527344 3.988281 9.527344 8.886719v14.8125c0 4.898438-4.273438 8.882812-9.527344 8.882812zm0 0" fill="#3762cc"/><path d="m146.601562 307.851562c-40.804687 0-75.9375-26.753906-86.570312-65.46875-16.511719-.136718-29.90625-13.511718-29.90625-29.929687 0-15.34375 11.699219-28.027344 26.710938-29.734375v-4.199219c0-49.070312 40.269531-88.992187 89.765624-88.992187 49.5 0 89.769532 39.921875 89.769532 88.992187v4.199219c15.007812 1.710938 26.707031 14.390625 26.707031 29.734375 0 16.417969-13.390625 29.792969-29.90625 29.929687-10.632813 38.714844-45.765625 65.46875-86.570313 65.46875zm-83.5-73.621093c1.835938 0 3.460938 1.261719 3.890626 3.082031 8.664062 36.820312 41.402343 62.539062 79.609374 62.539062 38.203126 0 70.941407-25.714843 79.605469-62.539062.464844-1.957031 2.304688-3.253906 4.316407-3.058594.839843.089844 1.621093.128906 2.382812.128906 12.222656 0 22.167969-9.835937 22.167969-21.929687 0-12.078125-9.917969-21.90625-22.121094-21.929687-.214844.015624-.355469.023437-.5.027343-1.082031.007813-2.117187-.386719-2.886719-1.140625-.765625-.753906-1.199218-1.785156-1.199218-2.859375v-8.03125c0-44.660156-36.679688-80.996093-81.769532-80.996093-45.085937 0-81.769531 36.335937-81.769531 80.996093v8.03125c0 1.074219-.433594 2.105469-1.199219 2.859375-.769531.753906-1.800781 1.140625-2.886718 1.140625-.148438-.003906-.292969-.015625-.441407-.023437-.003906 0-.003906 0-.007812 0-12.230469 0-22.171875 9.835937-22.171875 21.925781 0 12.09375 9.945312 21.929687 22.167968 21.929687.765626 0 1.546876-.039062 2.386719-.128906.144531-.015625.289063-.023437.425781-.023437zm0 0" fill="#3762cc"/><path d="m246.554688 236.027344c0 5.132812-4.160157 9.292968-9.292969 9.292968-5.132813 0-9.296875-4.160156-9.296875-9.292968 0-5.132813 4.164062-9.296875 9.296875-9.296875 5.132812 0 9.292969 4.164062 9.292969 9.296875zm0 0" fill="#e0ebfc"/><path d="m65.238281 236.027344c0 5.132812-4.160156 9.292968-9.292969 9.292968-5.132812 0-9.296874-4.160156-9.296874-9.292968 0-5.132813 4.164062-9.296875 9.296874-9.296875 5.132813 0 9.292969 4.164062 9.292969 9.296875zm0 0" fill="#e0ebfc"/><path d="m150.53125 252.425781h-18.28125c-1.5625 0-2.835938 1.269531-2.835938 2.835938v7.082031c0 2.617188 1.121094 5.164062 3.1875 7.246094 2.472657 2.492187 6.105469 4.105468 10.085938 4.558594v.148437h7.828125v-.148437c3.976563-.453126 7.609375-2.066407 10.085937-4.558594 2.0625-2.082032 3.183594-4.628906 3.183594-7.246094v-7.082031c0-1.566407-1.269531-2.835938-2.835937-2.835938zm0 0" fill="#f9a7a7"/><path d="m150.515625 278.296875h-7.828125c-.566406 0-1.105469-.117187-1.59375-.332031-4.484375-.730469-8.476562-2.683594-11.332031-5.5625-2.800781-2.820313-4.34375-6.394532-4.34375-10.058594v-7.082031c0-3.769531 3.066406-6.835938 6.835937-6.835938h28.699219c3.769531 0 6.835937 3.066407 6.835937 6.835938v7.082031c0 3.664062-1.542968 7.238281-4.34375 10.058594-2.875 2.898437-6.894531 4.859375-11.414062 5.578125-.46875.203125-.980469.316406-1.515625.316406zm-6.753906-8h5.695312c.195313-.054687.398438-.097656.601563-.121094 3.101562-.359375 5.910156-1.597656 7.703125-3.40625 1.324219-1.335937 2.023437-2.867187 2.023437-4.425781v-5.917969h-26.367187v5.917969c0 1.558594.699219 3.089844 2.023437 4.425781 1.792969 1.808594 4.601563 3.046875 7.703125 3.40625.210938.023438.417969.066407.617188.121094zm17.191406-13.871094h.019531zm0 0" fill="#3762cc"/><path d="m243.058594 401.367188h-192.917969c-2.207031 0-4-1.792969-4-4v-25.816407c0-32.609375 25.460937-59.382812 57.542969-61.503906v-15.4375c0-1.390625.722656-2.679687 1.90625-3.410156 1.183594-.726563 2.664062-.789063 3.898437-.160157 11.558594 5.847657 24.042969 8.8125 37.113281 8.8125 13.058594 0 25.539063-2.960937 37.09375-8.800781 1.238282-.625 2.714844-.566406 3.898438.164063 1.183594.726562 1.902344 2.015625 1.902344 3.40625v15.425781c32.097656 2.105469 57.5625 28.886719 57.5625 61.507813v25.8125c0 2.210937-1.789063 4-4 4zm-188.917969-8h184.917969v-21.816407c0-29.574219-24.0625-53.636719-53.636719-53.636719-.035156 0-.0625 0-.097656 0-1.199219 0-2.335938-.535156-3.09375-1.460937-.761719-.921875-1.070313-2.140625-.839844-3.316406.074219-.355469.105469-.652344.105469-.902344v-11.359375c-11.019532 4.632812-22.730469 6.976562-34.894532 6.976562-12.171874 0-23.890624-2.347656-34.917968-6.988281v11.417969c0 .214844.035156.488281.109375.855469.230469 1.175781-.074219 2.390625-.835938 3.316406-.757812.925781-1.894531 1.460937-3.089843 1.460937-29.664063 0-53.722657 24.0625-53.722657 53.636719v21.816407zm0 0" fill="#3762cc"/><path d="m196.398438 196.742188 5.742187-1.054688-4.128906 8.074219zm0 0" fill="#3762cc"/><path d="m96.730469 196.460938-5.621094-1.550782 3.40625 8.40625zm0 0" fill="#3762cc"/><path d="m166.480469 81.953125h-41.929688c-49.3125 0-89.289062 39.976563-89.289062 89.289063 0 8.058593 6.53125 14.59375 14.59375 14.59375h53.496093c23.285157 0 42.164063-18.878907 42.164063-42.167969 0 23.289062 18.878906 42.167969 42.164063 42.167969h53.5c8.054687 0 14.589843-6.535157 14.589843-14.59375 0-49.3125-39.976562-89.289063-89.289062-89.289063zm0 0" fill="#4671c6"/><path d="m243.058594 401.367188h-192.917969c-2.207031 0-4-1.792969-4-4v-25.816407c0-32.609375 25.460937-59.382812 57.542969-61.503906v-15.4375c0-1.390625.722656-2.679687 1.90625-3.410156 1.183594-.726563 2.664062-.789063 3.898437-.160157 11.558594 5.847657 24.042969 8.8125 37.113281 8.8125 13.058594 0 25.539063-2.960937 37.09375-8.800781 1.238282-.625 2.714844-.566406 3.898438.164063 1.183594.726562 1.902344 2.015625 1.902344 3.40625v15.425781c32.097656 2.105469 57.5625 28.886719 57.5625 61.507813v25.8125c0 2.210937-1.789063 4-4 4zm-188.917969-8h184.917969v-21.816407c0-29.574219-24.0625-53.636719-53.636719-53.636719-.035156 0-.0625 0-.097656 0-1.199219 0-2.335938-.535156-3.09375-1.460937-.761719-.921875-1.070313-2.140625-.839844-3.316406.074219-.355469.105469-.652344.105469-.902344v-11.359375c-11.019532 4.632812-22.730469 6.976562-34.894532 6.976562-12.171874 0-23.890624-2.347656-34.917968-6.988281v11.417969c0 .214844.035156.488281.109375.855469.230469 1.175781-.074219 2.390625-.835938 3.316406-.757812.925781-1.894531 1.460937-3.089843 1.460937-29.664063 0-53.722657 24.0625-53.722657 53.636719v21.816407zm0 0" fill="#3762cc"/><path d="m243.058594 401.367188h-192.917969c-2.207031 0-4-1.792969-4-4v-25.816407c0-32.609375 25.460937-59.382812 57.542969-61.503906v-15.4375c0-1.390625.722656-2.679687 1.90625-3.410156 1.183594-.726563 2.664062-.789063 3.898437-.160157 11.558594 5.847657 24.042969 8.8125 37.113281 8.8125 13.058594 0 25.539063-2.960937 37.09375-8.800781 1.238282-.625 2.714844-.566406 3.898438.164063 1.183594.726562 1.902344 2.015625 1.902344 3.40625v15.425781c32.097656 2.105469 57.5625 28.886719 57.5625 61.507813v25.8125c0 2.210937-1.789063 4-4 4zm-188.917969-8h184.917969v-21.816407c0-29.574219-24.0625-53.636719-53.636719-53.636719-.035156 0-.0625 0-.097656 0-1.199219 0-2.335938-.535156-3.09375-1.460937-.761719-.921875-1.070313-2.140625-.839844-3.316406.074219-.355469.105469-.652344.105469-.902344v-11.359375c-11.019532 4.632812-22.730469 6.976562-34.894532 6.976562-12.171874 0-23.890624-2.347656-34.917968-6.988281v11.417969c0 .214844.035156.488281.109375.855469.230469 1.175781-.074219 2.390625-.835938 3.316406-.757812.925781-1.894531 1.460937-3.089843 1.460937-29.664063 0-53.722657 24.0625-53.722657 53.636719v21.816407zm0 0" fill="#3762cc"/><path d="m185.496094 313.917969v24.984375c0 3.132812-2.535156 5.667968-5.664063 5.667968h-66.480469c-3.132812 0-5.667968-2.535156-5.667968-5.667968v-24.984375c-14.097656.023437-27.003906 5.113281-37.007813 13.539062v69.90625h151.832031v-69.925781c-10.007812-8.414062-22.910156-13.5-37.011718-13.519531zm0 0" fill="#6bdddd"/><path d="m222.507812 401.367188h-151.832031c-2.207031 0-4-1.792969-4-4v-69.910157c0-1.179687.519531-2.296875 1.425781-3.058593 11.058594-9.3125 25.113282-14.457032 39.578126-14.480469h.003906c1.058594 0 2.078125.421875 2.828125 1.171875s1.171875 1.765625 1.171875 2.828125v24.984375c0 .917968.75 1.667968 1.667968 1.667968h66.480469c.917969 0 1.664063-.75 1.664063-1.667968v-24.984375c0-1.0625.425781-2.082031 1.175781-2.832031s1.765625-1.167969 2.824219-1.167969h.007812c14.460938.019531 28.515625 5.152343 39.578125 14.460937.902344.761719 1.425781 1.882813 1.425781 3.0625v69.925782c0 2.210937-1.792968 4-4 4zm-147.832031-8h143.832031v-64.023438c-8.339843-6.542969-18.464843-10.464844-29.007812-11.273438v20.832032c0 5.328125-4.335938 9.664062-9.664062 9.664062h-66.484376c-5.332031 0-9.667968-4.335937-9.667968-9.664062v-20.828125c-10.546875.808593-20.667969 4.738281-29.007813 11.285156zm0 0" fill="#3762cc"/><path d="m241.179688 189.835938h-53.5c-18.765626 0-34.953126-11.257813-42.164063-27.375-7.210937 16.117187-23.398437 27.375-42.164063 27.375h-53.496093c-10.25 0-18.589844-8.339844-18.589844-18.59375 0-8.710938 1.199219-17.332032 3.5625-25.632813.609375-2.125 2.824219-3.355469 4.945313-2.75 2.125.605469 3.355468 2.820313 2.75 4.945313-2.164063 7.585937-3.257813 15.46875-3.257813 23.441406 0 5.839844 4.75 10.589844 10.589844 10.589844h53.496093c21.042969 0 38.164063-17.121094 38.164063-38.164063 0-2.210937 1.792969-4 4-4s4 1.789063 4 4c0 21.042969 17.121094 38.164063 38.164063 38.164063h53.5c5.839843 0 10.589843-4.75 10.589843-10.589844 0-8.367188-1.207031-16.628906-3.585937-24.5625-.636719-2.121094.5625-4.347656 2.679687-4.984375 2.125-.625 4.34375.566406 4.980469 2.683593 2.605469 8.683594 3.925781 17.71875 3.925781 26.863282 0 10.25-8.339843 18.589844-18.589843 18.589844zm0 0" fill="#3762cc"/><path d="m256.238281 367.585938h23.953125v29.78125h-23.953125zm0 0" fill="#a4c9ff"/><path d="m280.191406 401.367188h-23.953125c-2.207031 0-4-1.792969-4-4v-29.78125c0-2.210938 1.792969-4 4-4h23.953125c2.207032 0 4 1.789062 4 4v29.78125c0 2.210937-1.792968 4-4 4zm-19.953125-8h15.953125v-21.78125h-15.953125zm0 0" fill="#3762cc"/><path d="m268.214844 373.980469c-21.195313 0-38.375-17.179688-38.375-38.375v-53.390625c0-21.195313 17.179687-38.375 38.375-38.375 21.191406 0 38.375 17.179687 38.375 38.375v53.394531c0 21.191406-17.183594 38.371094-38.375 38.371094zm0 0" fill="#e0ebfc"/><path d="m285.136719 325.597656c-3.683594 0-6.671875 2.988282-6.671875 6.671875 0 3.6875 2.988281 6.675781 6.671875 6.675781h21.300781c.09375-1.101562.152344-2.214843.152344-3.335937v-10.011719zm0 0" fill="#a4c9ff"/><path d="m306.589844 302.238281h-21.453125c-3.683594 0-6.671875 2.988281-6.671875 6.675781 0 3.683594 2.988281 6.671876 6.671875 6.671876h21.453125zm0 0" fill="#a4c9ff"/><path d="m278.464844 285.554688c0 3.6875 2.988281 6.671874 6.671875 6.671874h21.453125v-10.007812c0-1.125-.058594-2.238281-.152344-3.335938h-21.300781c-3.683594-.003906-6.671875 2.984376-6.671875 6.671876zm0 0" fill="#a4c9ff"/><path d="m251.289062 325.597656h-21.449218v10.007813c0 1.125.054687 2.238281.152344 3.335937h21.296874c3.6875 0 6.675782-2.988281 6.675782-6.671875 0-3.6875-2.988282-6.671875-6.675782-6.671875zm0 0" fill="#a4c9ff"/><path d="m251.289062 302.238281h-21.449218v13.347657h21.449218c3.6875 0 6.675782-2.988282 6.675782-6.671876 0-3.6875-2.988282-6.675781-6.675782-6.675781zm0 0" fill="#a4c9ff"/><path d="m251.289062 278.878906h-21.296874c-.09375 1.101563-.152344 2.214844-.152344 3.335938v10.011718h21.449218c3.6875 0 6.675782-2.988281 6.675782-6.675781 0-3.683593-2.988282-6.671875-6.675782-6.671875zm0 0" fill="#a4c9ff"/><path d="m268.214844 377.980469c-23.367188 0-42.375-19.007813-42.375-42.375v-53.390625c0-23.363282 19.007812-42.375 42.375-42.375 23.363281 0 42.375 19.011718 42.375 42.375v53.394531c0 23.363281-19.011719 42.371094-42.375 42.371094zm0-130.136719c-18.953125 0-34.375 15.417969-34.375 34.375v53.390625c0 18.953125 15.417968 34.375 34.375 34.375 18.957031 0 34.375-15.421875 34.375-34.375v-53.390625c0-18.957031-15.417969-34.375-34.375-34.375zm0 0" fill="#3762cc"/></svg>